<svg xmlns="http://www.w3.org/2000/svg" viewBox="0 0 1200 800" role="img" aria-labelledby="heroTitle">
  <title id="heroTitle">Learning illustration</title>
  <defs>
    <linearGradient id="bg" x1="0" y1="0" x2="1" y2="1">
      <stop offset="0%" stop-color="#eef2ff"/>
      <stop offset="100%" stop-color="#f8f1ff"/>
    </linearGradient>
  </defs>
  <rect width="1200" height="800" rx="48" fill="url(#bg)"/>
  <rect x="120" y="140" width="420" height="560" rx="40" fill="#ffffff" opacity="0.95"/>
  <rect x="660" y="180" width="360" height="320" rx="32" fill="#c9d6f7"/>
  <circle cx="830" cy="280" r="60" fill="#6153ff" opacity="0.92"/>
  <path d="M240 360c44-52 120-84 220-84 100 0 176 30 220 84" fill="none" stroke="#5b6ee8" stroke-width="26" stroke-linecap="round"/>
  <path d="M280 510c48-42 110-60 190-60 80 0 142 18 190 60" fill="none" stroke="#8d79ff" stroke-width="24" stroke-linecap="round"/>
  <g transform="translate(320 220)">
    <circle cx="80" cy="80" r="60" fill="#dde2ff"/>
    <rect x="32" y="160" width="96" height="16" rx="8" fill="#8d79ff"/>
  </g>
  <g transform="translate(760 520)">
    <rect x="0" y="0" width="280" height="180" rx="28" fill="#ffffff" opacity="0.95"/>
    <circle cx="60" cy="60" r="22" fill="#3b82f6"/>
    <rect x="100" y="46" width="140" height="24" rx="12" fill="#c7d2fe"/>
    <rect x="24" y="108" width="232" height="18" rx="9" fill="#e0e7ff"/>
    <rect x="24" y="140" width="180" height="18" rx="9" fill="#e0e7ff"/>
  </g>
  <rect x="680" y="100" width="180" height="12" rx="6" fill="#a78bfa" opacity="0.8"/>
</svg>
